<svg xmlns="http://www.w3.org/2000/svg" viewBox="0 0 210.99 210.99"><defs><style>.cls-1{fill:#22ff9d;}.cls-2,.cls-3{fill:#141a31;}.cls-3{font-size:29.44px;font-family:Quicksand-Medium, Quicksand;}.cls-4{letter-spacing:0.05em;}.cls-5{letter-spacing:0em;}.cls-6{letter-spacing:0em;}</style></defs><title>Element 8</title><g id="Ebene_2" data-name="Ebene 2"><g id="Ebene_1-2" data-name="Ebene 1"><rect class="cls-1" width="210.99" height="210.99"/><path class="cls-2" d="M124.86,69a32.81,32.81,0,0,1,5.53,6.32,33.92,33.92,0,0,1,6.32,19,38.61,38.61,0,0,1-1.58,12.9,37.38,37.38,0,0,1-5,10,32.88,32.88,0,0,1-9.48,9.48c-5.44,3.46-10.5,4.17-14.48,4.74a39.74,39.74,0,0,1-15.72-.73,25.13,25.13,0,0,1-8.69-4.35c-2.7-2.11-3.17-3.43-3.34-4.17a5.94,5.94,0,0,1,2.43-6.19c1.46-.87,3.08-.65,4.76-.41a14.18,14.18,0,0,1,3.92,1.17,25.7,25.7,0,0,0,9.11,1.67A30.66,30.66,0,0,0,110,116.83a21.1,21.1,0,0,0,5.6-2.67,22.87,22.87,0,0,0,5.43-5.51,22.92,22.92,0,0,0,3.09-5.18A20.25,20.25,0,0,0,125,91.19,22.15,22.15,0,0,0,119.69,82c-3.25-3.76-4.87-5.65-7.27-7.1A5.16,5.16,0,0,1,110.67,67a6.28,6.28,0,0,1,4.67-2.17,9.07,9.07,0,0,1,4.35.84A16.8,16.8,0,0,1,124.86,69Z"/><path class="cls-2" d="M86.13,91.9a33.14,33.14,0,0,1-5.53-6.32,34,34,0,0,1-6.32-19,38.72,38.72,0,0,1,1.58-12.9,37.38,37.38,0,0,1,5-10,32.88,32.88,0,0,1,9.48-9.48c5.44-3.46,10.5-4.18,14.48-4.74a39.74,39.74,0,0,1,15.72.73,25,25,0,0,1,8.69,4.34c2.7,2.11,3.17,3.44,3.34,4.18a5.94,5.94,0,0,1-2.42,6.18c-1.47.87-3.09.65-4.77.42a14.18,14.18,0,0,1-3.92-1.17,25.7,25.7,0,0,0-9.11-1.67A31,31,0,0,0,101,44a20.68,20.68,0,0,0-5.59,2.68A22.32,22.32,0,0,0,90,52.2a22.56,22.56,0,0,0-3.09,5.18A20.2,20.2,0,0,0,86,69.66a22.22,22.22,0,0,0,5.26,9.19c3.25,3.76,4.87,5.64,7.27,7.1A5.48,5.48,0,0,1,100.83,88a5.57,5.57,0,0,1-.51,5.84,6.25,6.25,0,0,1-4.67,2.17,9.08,9.08,0,0,1-4.35-.83A17.34,17.34,0,0,1,86.13,91.9Z"/><text class="cls-3" transform="translate(49.31 174.07)">se<tspan class="cls-4" x="30.82" y="0">r</tspan><tspan class="cls-5" x="44.45" y="0">v</tspan><tspan class="cls-6" x="60.44" y="0">eup</tspan></text></g></g></svg>