<svg xmlns="http://www.w3.org/2000/svg" viewBox="0 0 112.37 152.87"><defs><style>.cls-1,.cls-2{fill:#141a31;}.cls-2{font-size:29.44px;font-family:Quicksand-Medium, Quicksand;}.cls-3{letter-spacing:0.05em;}.cls-4{letter-spacing:0em;}.cls-5{letter-spacing:0em;}</style></defs><title>Element 9</title><g id="Ebene_2" data-name="Ebene 2"><g id="Ebene_1-2" data-name="Ebene 1"><path class="cls-1" d="M75.55,39.88a33.49,33.49,0,0,1,5.53,6.32,34,34,0,0,1,6.32,19,38.33,38.33,0,0,1-1.58,12.9,37.53,37.53,0,0,1-5,10,32.75,32.75,0,0,1-9.48,9.47c-5.43,3.46-10.5,4.18-14.48,4.74a39.56,39.56,0,0,1-15.72-.73,24.75,24.75,0,0,1-8.68-4.34c-2.71-2.11-3.18-3.43-3.35-4.18a5.94,5.94,0,0,1,2.43-6.18c1.46-.87,3.08-.65,4.76-.42a14.79,14.79,0,0,1,3.92,1.17,25.26,25.26,0,0,0,9.11,1.67,30.74,30.74,0,0,0,11.36-1.5,21.1,21.1,0,0,0,5.6-2.67,22.7,22.7,0,0,0,5.43-5.52,22.82,22.82,0,0,0,3.09-5.17,20.25,20.25,0,0,0,.83-12.28,22,22,0,0,0-5.26-9.19c-3.25-3.77-4.87-5.65-7.27-7.1a5.16,5.16,0,0,1-1.75-7.94A6.29,6.29,0,0,1,66,35.73a9.18,9.18,0,0,1,4.34.83A17.21,17.21,0,0,1,75.55,39.88Z"/><path class="cls-1" d="M36.82,62.84a33.14,33.14,0,0,1-5.53-6.32,34,34,0,0,1-6.32-19,38.66,38.66,0,0,1,1.58-12.9,37.38,37.38,0,0,1,5-10A32.76,32.76,0,0,1,41,5.18C46.47,1.72,51.53,1,55.51.44a39.74,39.74,0,0,1,15.72.73,24.85,24.85,0,0,1,8.69,4.34c2.7,2.11,3.17,3.44,3.34,4.18a5.94,5.94,0,0,1-2.42,6.18c-1.47.87-3.09.65-4.76.42a14.51,14.51,0,0,1-3.93-1.17A25.44,25.44,0,0,0,63,13.45,30.78,30.78,0,0,0,51.68,15a21.06,21.06,0,0,0-5.59,2.67,22.34,22.34,0,0,0-5.43,5.52,22.92,22.92,0,0,0-3.09,5.18,20.21,20.21,0,0,0-.84,12.28A22.28,22.28,0,0,0,42,49.79c3.25,3.76,4.87,5.64,7.27,7.1A5.52,5.52,0,0,1,51.52,59a5.6,5.6,0,0,1-.5,5.85A6.26,6.26,0,0,1,46.34,67,9.2,9.2,0,0,1,42,66.16,17.34,17.34,0,0,1,36.82,62.84Z"/><text class="cls-2" transform="translate(0 145.01)">se<tspan class="cls-3" x="30.82" y="0">r</tspan><tspan class="cls-4" x="44.45" y="0">v</tspan><tspan class="cls-5" x="60.44" y="0">eup</tspan></text></g></g></svg>